<?xml version="1.0" encoding="utf-8"?>
<!-- Generator: Adobe Illustrator 21.0.0, SVG Export Plug-In . SVG Version: 6.00 Build 0)  -->
<svg version="1.1" id="Ebene_1" xmlns="http://www.w3.org/2000/svg" xmlns:xlink="http://www.w3.org/1999/xlink" x="0px" y="0px"
	 width="169.2px" height="27.8px" viewBox="0 0 169.2 27.8" style="enable-background:new 0 0 169.2 27.8;" xml:space="preserve">
<style type="text/css">
	.st0{fill:#FFDF00;}
	.st1{fill:#CCCCCC;}
</style>
<polygon class="st0" points="14.6,0 19.1,9.1 29.2,10.6 21.9,17.7 23.6,27.8 14.6,23 5.6,27.8 7.3,17.7 0,10.6 10.1,9.1 "/>
<polygon class="st0" points="49.6,0 54.1,9.1 64.2,10.6 56.9,17.7 58.6,27.8 49.6,23 40.6,27.8 42.3,17.7 35,10.6 45.1,9.1 "/>
<polygon class="st0" points="84.6,0 89.1,9.1 99.2,10.6 91.9,17.7 93.6,27.8 84.6,23 75.6,27.8 77.3,17.7 70,10.6 80.1,9.1 "/>
<polygon class="st0" points="119.6,0 124.1,9.1 134.2,10.6 126.9,17.7 128.6,27.8 119.6,23 110.6,27.8 112.3,17.7 105,10.6 
	115.1,9.1 "/>
<g>
	<polygon class="st1" points="164.3,15.4 169.2,10.6 163.2,9.7 	"/>
	<polygon class="st0" points="164.3,15.4 163.2,9.7 159.1,9.1 154.6,0 150.1,9.1 140,10.6 147.3,17.7 145.6,27.8 154.6,23 
		163.6,27.8 161.9,17.7 	"/>
</g>
</svg>
