<?xml version="1.0" encoding="utf-8"?><svg version="1.1" id="Ebene_1" xmlns="http://www.w3.org/2000/svg" xmlns:xlink="http://www.w3.org/1999/xlink" x="0px" y="0px" width="60px" height="60px" viewBox="0 0 60 60" style="enable-background:new 0 0 60 60;" xml:space="preserve"><path fill="#8c92a3" d="M56.8,16.3c-0.1-0.6-0.6-1.1-1.3-1.2c-0.6-0.1-1.2,0.3-1.5,0.9c-0.1,0.1-5.5,14.4-18.5,16.5c-4.5,0.7-9.9-0.5-15.6-3.6l2.4-4.4c0.3-0.5,0.2-1.1-0.1-1.5c-0.3-0.4-0.9-0.7-1.4-0.5L3.6,26.2c-0.4,0.1-0.8,0.3-1,0.7c-0.2,0.4-0.2,0.8-0.1,1.2l7.1,18.5c0.2,0.5,0.7,0.9,1.3,0.9c0,0,0,0,0,0c0.6,0,1.1-0.3,1.3-0.9l2-4.8c4,2.1,15.4,7.3,25.5,4.5c7.2-1.7,12.4-6,15.2-12.3C57.3,28.9,57.9,22.7,56.8,16.3z"/></svg>