<?xml version="1.0" encoding="utf-8"?>
<!-- Generator: Adobe Illustrator 21.0.0, SVG Export Plug-In . SVG Version: 6.00 Build 0)  -->
<svg version="1.1" id="Ebene_1" xmlns="http://www.w3.org/2000/svg" xmlns:xlink="http://www.w3.org/1999/xlink" x="0px" y="0px"
	 width="26.2px" height="15px" viewBox="0 0 26.2 15" style="enable-background:new 0 0 26.2 15;" xml:space="preserve">
<style type="text/css">
	.st0{fill:#565656;}
</style>
<g>
	<path class="st0" d="M12.3,11.6c-0.2,0.6-0.7,1.1-1.2,0.9c-0.5-0.1-0.8-0.8-0.6-1.4c0.2-0.6,0.7-1,1.2-0.9
		C12.2,10.3,12.5,10.9,12.3,11.6"/>
	<path class="st0" d="M23,8l-1.5-0.1l0.6-2L23,6.3V8z M24.6,8.1c0,0,0-3.5-0.7-3.5c-0.7,0-2.4,0-2.4,0L19,11.6h1.7
		c0-0.2,0-0.4,0.1-0.6c0.3-1,1.1-1.6,1.9-1.4c0.7,0.2,1.1,1.1,0.9,2h1.2L26.2,9L24.6,8.1z"/>
	<path class="st0" d="M23.1,11.6c-0.2,0.6-0.7,1.1-1.2,0.9c-0.5-0.1-0.8-0.8-0.6-1.4c0.2-0.6,0.7-1,1.2-0.9
		C23.1,10.3,23.3,10.9,23.1,11.6"/>
	<path class="st0" d="M8.2,4.2c0,0.2-0.2,0.4-0.4,0.4H3.4C3.2,4.6,3,4.4,3,4.2c0-0.2,0.2-0.4,0.4-0.4h4.4C8,3.7,8.2,3.9,8.2,4.2"/>
	<path class="st0" d="M6.6,6c0,0.2-0.2,0.4-0.4,0.4H0.6C0.4,6.4,0.2,6.3,0.2,6c0-0.2,0.2-0.4,0.4-0.4h5.5C6.4,5.6,6.6,5.8,6.6,6"/>
	<path class="st0" d="M7.1,7.5c0,0.2-0.2,0.4-0.4,0.4H2.6c-0.2,0-0.4-0.2-0.4-0.4c0-0.2,0.2-0.4,0.4-0.4h4.1
		C6.9,7.1,7.1,7.3,7.1,7.5"/>
	<path class="st0" d="M4.9,9.3c0,0.2-0.2,0.4-0.4,0.4H0.4C0.2,9.7,0,9.5,0,9.3c0-0.2,0.2-0.4,0.4-0.4h4.1C4.7,8.9,4.9,9.1,4.9,9.3"
		/>
	<path class="st0" d="M9.5,3.2l-2.4,7.6c1.4,0,1.3,0.8,1.3,0.8h1.6c0-0.2,0-0.4,0.1-0.6c0.3-1,1.1-1.6,1.9-1.4
		c0.7,0.2,1.1,1.1,0.9,2h5.3l3-8.4H9.5z"/>
</g>
</svg>
