<?xml version="1.0" encoding="utf-8"?>
<!-- Generator: Adobe Illustrator 21.0.0, SVG Export Plug-In . SVG Version: 6.00 Build 0)  -->
<svg version="1.1" id="Ebene_1" xmlns="http://www.w3.org/2000/svg" xmlns:xlink="http://www.w3.org/1999/xlink" x="0px" y="0px"
	 width="26.2px" height="15px" viewBox="0 0 26.2 15" style="enable-background:new 0 0 26.2 15;" xml:space="preserve">
<style type="text/css">
	.st0{fill:#565656;}
</style>
<g>
	<path class="st0" d="M19.3,6.8c0,0-1.5,4.1-5.3,4.7c-1.3,0.2-2.9-0.1-4.8-1.2C10,8.8,10,8.8,10,8.8l-4.6,1l1.9,5l0.7-1.7
		c0,0,3.8,2.3,7,1.4C19,13.5,19.8,9.7,19.3,6.8z"/>
	<path class="st0" d="M20.3,0.6l-3.9-0.4c-0.3,1.4-1.4,2.3-2.8,2.3s-2.5-1-2.8-2.3L6.7,0.6c-0.5,0-1,0.5-1,1l0.3,2
		c0,0.5,0.3,1,0.9,1l2,0.4L8.7,8.2l2.8-0.6L10.3,10c1.3,0.6,2.5,0.9,3.6,0.7c2.3-0.4,3.6-2.2,4.2-3.3L18,5.1l1.9-0.4
		c0.5,0,1-0.5,1-1l0.3-2C21.3,1.2,20.8,0.6,20.3,0.6z"/>
</g>
</svg>
