<?xml version="1.0" encoding="utf-8"?>
<!-- Generator: Adobe Illustrator 21.0.0, SVG Export Plug-In . SVG Version: 6.00 Build 0)  -->
<svg version="1.1" id="Ebene_1" xmlns="http://www.w3.org/2000/svg" xmlns:xlink="http://www.w3.org/1999/xlink" x="0px" y="0px"
	 width="26.2px" height="15px" viewBox="0 0 26.2 15" style="enable-background:new 0 0 26.2 15;" xml:space="preserve">
<style type="text/css">
	.st0{fill:#565656;}
</style>
<g>
	<path class="st0" d="M19.3,1.5l-3.6-0.4c0,0.1,0,0.1-0.1,0.2l2,0.2C18.3,1.5,19,2.2,19,3L19,3l-0.3,1.9c0,0.2,0,0.3-0.1,0.5L19,5.3
		c0.5,0,1-0.5,1-1l0.3-1.9C20.2,1.9,19.8,1.5,19.3,1.5"/>
	<path class="st0" d="M16,6.6l0.4,6.7c0,0.1,0,0.1,0,0.1h0.4c0.5,0,0.8-0.2,0.8-0.7l-0.4-6.5L16,6.6z"/>
	<path class="st0" d="M11.1,3.2c0.3,0,0.6-0.1,0.9-0.3c-0.8-0.3-1.3-1-1.5-1.9L9.2,1.2l0.1,0.3C9.4,2.4,10.2,3.1,11.1,3.2"/>
	<path class="st0" d="M21.6,1l-3.6-0.4c0,0.1,0,0.1-0.1,0.2l2,0.2c0.7,0,1.4,0.7,1.4,1.4l0,0.1L21,4.3c0,0.2,0,0.3-0.1,0.5l0.4-0.1
		c0.5,0,1-0.5,1-0.9l0.3-1.8C22.5,1.4,22,1,21.6,1"/>
	<path class="st0" d="M18.3,5.9l0.4,6.5c0,0.1,0,0.2,0,0.2h0.4c0.5,0,0.8-0.2,0.8-0.7l-0.4-6.3L18.3,5.9z"/>
	<path class="st0" d="M12.5,2.4c0.2-0.3,0.4-0.6,0.5-0.9l0-0.2c-0.1-0.2-0.2-0.4-0.2-0.7l-1.3,0.1L11.5,1C11.6,1.6,12,2.1,12.5,2.4"
		/>
	<path class="st0" d="M14.1,12.3c-0.3,0.4-0.6,0.5-1.1,0.5c-0.5,0-0.8-0.2-1.1-0.5c-0.3-0.4-0.4-0.9-0.4-1.5s0.1-1.2,0.4-1.5
		c0.3-0.4,0.6-0.5,1.1-0.5c0.5,0,0.8,0.2,1.1,0.5c0.3,0.4,0.4,0.9,0.4,1.5S14.4,12,14.1,12.3 M8.6,13.4l3.4-8.2h1.2l-3.4,8.2H8.6z
		 M7.7,8.8C7.4,8.4,7.2,7.9,7.2,7.2S7.4,6,7.7,5.7c0.3-0.4,0.6-0.5,1.1-0.5c0.5,0,0.8,0.2,1.1,0.5c0.3,0.4,0.4,0.9,0.4,1.5
		s-0.1,1.2-0.4,1.5C9.6,9.1,9.2,9.3,8.8,9.3C8.3,9.3,7.9,9.1,7.7,8.8 M17.1,2l-3.6-0.4c-0.2,1.2-1.3,2.1-2.6,2.1
		c-1.3,0-2.3-0.9-2.6-2.1L4.5,2C4.1,2,3.7,2.5,3.7,3l0.2,1.9c0,0.5,0.4,1,0.9,1l1.8,0.4l-0.4,7.3c0,0.5,0.4,0.9,0.8,0.9h7.6
		c0.5,0,0.8-0.4,0.8-0.9l-0.4-7.3l1.8-0.4c0.5,0,1-0.5,1-1L18.1,3C18.1,2.5,17.6,2,17.1,2"/>
	<path class="st0" d="M9.2,8c0.1-0.2,0.2-0.4,0.2-0.8S9.3,6.6,9.2,6.4C9,6.3,8.9,6.2,8.8,6.2c-0.2,0-0.3,0.1-0.4,0.2
		C8.3,6.6,8.2,6.9,8.2,7.2S8.3,7.9,8.4,8c0.1,0.2,0.2,0.2,0.4,0.2C8.9,8.3,9,8.2,9.2,8"/>
	<path class="st0" d="M13,9.8c-0.2,0-0.3,0.1-0.4,0.2c-0.1,0.2-0.2,0.4-0.2,0.8c0,0.4,0.1,0.6,0.2,0.8c0.1,0.2,0.2,0.2,0.4,0.2
		c0.2,0,0.3-0.1,0.4-0.2c0.1-0.2,0.2-0.4,0.2-0.8c0-0.4-0.1-0.6-0.2-0.8C13.3,9.9,13.2,9.8,13,9.8"/>
</g>
</svg>
